<?xml version="1.0" encoding="UTF-8" standalone="no"?>
<!-- Created with Inkscape (http://www.inkscape.org/) -->

<svg
   width="200mm"
   height="200mm"
   viewBox="0 0 200 200"
   version="1.1"
   id="svg1"
   inkscape:version="1.4 (86a8ad7, 2024-10-11)"
   sodipodi:docname="aaa_willow_logo_FINAL_favicon.svg"
   xmlns:inkscape="http://www.inkscape.org/namespaces/inkscape"
   xmlns:sodipodi="http://sodipodi.sourceforge.net/DTD/sodipodi-0.dtd"
   xmlns="http://www.w3.org/2000/svg"
   xmlns:svg="http://www.w3.org/2000/svg">
  <sodipodi:namedview
     id="namedview1"
     pagecolor="#ffffff"
     bordercolor="#000000"
     borderopacity="0.25"
     inkscape:showpageshadow="2"
     inkscape:pageopacity="0.0"
     inkscape:pagecheckerboard="0"
     inkscape:deskcolor="#d1d1d1"
     inkscape:document-units="mm"
     showgrid="true"
     showguides="true"
     inkscape:zoom="1.0000001"
     inkscape:cx="691.99993"
     inkscape:cy="367.49996"
     inkscape:window-width="2560"
     inkscape:window-height="1377"
     inkscape:window-x="-8"
     inkscape:window-y="-8"
     inkscape:window-maximized="1"
     inkscape:current-layer="layer1">
    <inkscape:grid
       id="grid1"
       units="mm"
       originx="0"
       originy="0"
       spacingx="0.99999999"
       spacingy="0.99999999"
       empcolor="#0099e5"
       empopacity="0.30196078"
       color="#0099e5"
       opacity="0.14901961"
       empspacing="5"
       enabled="true"
       visible="true" />
  </sodipodi:namedview>
  <defs
     id="defs1" />
  <g
     inkscape:label="Layer 1"
     inkscape:groupmode="layer"
     id="layer1">
    <path
       style="fill:#58b1ff;stroke:#58b1ff;stroke-width:3.63601;stroke-linecap:round;stroke-linejoin:round;fill-opacity:1;stroke-opacity:1"
       id="path1"
       sodipodi:type="arc"
       sodipodi:cx="100"
       sodipodi:cy="100"
       sodipodi:rx="95"
       sodipodi:ry="95"
       sodipodi:start="0"
       sodipodi:end="6.2485429"
       sodipodi:arc-type="slice"
       d="M 195,100 A 95,95 0 0 1 100.82275,194.99644 95,95 0 0 1 5.0142508,101.64543 95,95 0 0 1 97.532006,5.0320633 95,95 0 0 1 194.943,96.70963 L 100,100 Z" />
    <path
       style="fill:#58b1ff;fill-opacity:1;stroke:#58b1ff;stroke-width:3.63601;stroke-linecap:round;stroke-linejoin:round;stroke-opacity:1"
       id="path1-8"
       sodipodi:type="arc"
       sodipodi:cx="-99.999725"
       sodipodi:cy="100"
       sodipodi:rx="95"
       sodipodi:ry="95"
       sodipodi:start="0"
       sodipodi:end="6.2485429"
       sodipodi:arc-type="slice"
       d="M -4.9997253,100 A 95,95 0 0 1 -99.176978,194.99644 95,95 0 0 1 -194.98547,101.64543 95,95 0 0 1 -102.46772,5.0320633 95,95 0 0 1 -5.0567242,96.70963 L -99.999725,100 Z"
       transform="scale(-1,1)" />
    <ellipse
       style="fill:#79e998;fill-opacity:1;stroke:#79e998;stroke-width:0.272241;stroke-linecap:butt;stroke-dasharray:none;stroke-opacity:1"
       id="path1-2"
       cx="124.87578"
       cy="55.994942"
       rx="8.2153606"
       ry="13.149037" />
    <ellipse
       style="fill:#58b1ff;fill-opacity:1;stroke-width:0.115933;stroke-dasharray:none"
       id="path1-2-8"
       cx="124.87578"
       cy="55.982956"
       rx="3.6238296"
       ry="5.4059277" />
    <path
       style="fill:none;fill-opacity:1;stroke:#79e998;stroke-width:10;stroke-linecap:round;stroke-dasharray:none;stroke-opacity:1"
       d="m 14.712703,124.88992 c 14.048005,30.03158 14.582163,1.0891 14.582163,1.0891 0,0 2.275462,-101.194373 13.513874,-73.164902 11.238452,28.02947 17.755735,-4.907179 17.755735,-4.907179"
       id="path72-4"
       sodipodi:nodetypes="ccsc" />
    <path
       style="fill:none;fill-opacity:1;stroke:#79e998;stroke-width:10;stroke-linecap:round;stroke-dasharray:none;stroke-opacity:1"
       d="m 185.3489,124.88992 c -14.04803,30.03158 -14.58219,1.0891 -14.58219,1.0891 0,0 -2.27547,-101.194373 -13.51387,-73.164902 -11.23843,28.02947 -17.75571,-4.907179 -17.75571,-4.907179"
       id="path72-5-1"
       sodipodi:nodetypes="ccsc" />
    <path
       style="fill:none;fill-opacity:1;stroke:#c7c7c7;stroke-width:10;stroke-linecap:round;stroke-dasharray:none;stroke-opacity:1"
       d="m 90.561489,47.8754 c 0,0 0.634204,84.68901 -17.326231,104.25568"
       id="path73-13"
       sodipodi:nodetypes="cc" />
    <path
       style="fill:none;fill-opacity:1;stroke:#c7c7c7;stroke-width:10;stroke-linecap:round;stroke-dasharray:none;stroke-opacity:1"
       d="m 109.40201,47.898786 c 0,0 -0.63419,84.665624 17.32626,104.232294"
       id="path73-1-8"
       sodipodi:nodetypes="cc" />
    <path
       style="fill:none;fill-opacity:1;stroke:#79e998;stroke-width:10;stroke-linecap:round;stroke-dasharray:none;stroke-opacity:1"
       d="M 75.000001,47.839643 V 64.233336"
       id="path76-4"
       sodipodi:nodetypes="cc" />
  </g>
</svg>
